HIERARCHY
ROOT pelvis
{
  OFFSET 0 100 0
  CHANNELS 6 Xposition Yposition Zposition Zrotation Xrotation Yrotation
  JOINT pelvis_right_femur
  {
    OFFSET -10.78128 -3.44521 -0.5502486
    CHANNELS 3 Zrotation Xrotation Yrotation
    JOINT right_femur_tibia
    {
      OFFSET -0.8047443 -44.0398 -0.1307829
      CHANNELS 3 Zrotation Xrotation Yrotation
      JOINT right_tibia_foot
      {
        OFFSET 3.006224 -47.83518 -5
        CHANNELS 3 Zrotation Xrotation Yrotation
        End Site
        {
          OFFSET 0 -5 15
        }
      }
    }
  }
  JOINT pelvis_left_femur
  {
    OFFSET 10.78128 -3.44521 -0.5502486
    CHANNELS 3 Zrotation Xrotation Yrotation
    JOINT left_femur_tibia
    {
      OFFSET 0.8047443 -44.0398 -0.1307829
      CHANNELS 3 Zrotation Xrotation Yrotation
      JOINT left_tibia_foot
      {
        OFFSET -4.370144 -48.10324 -4.275266
        CHANNELS 3 Zrotation Xrotation Yrotation
        End Site
        {
          OFFSET 0 -5 15
        }
      }
    }
  }
  JOINT pelvis_spine1
  {
    OFFSET 0 6.468898 -3.129235
    CHANNELS 3 Zrotation Xrotation Yrotation
    JOINT spine1
    {
      OFFSET 0 23.15396 4.99043
      CHANNELS 3 Zrotation Xrotation Yrotation
      JOINT spine2
      {
        OFFSET 0 20.79997 -5.064912
        CHANNELS 3 Zrotation Xrotation Yrotation
        JOINT neck
        {
          OFFSET 0 14.38658 9.616178
          CHANNELS 3 Zrotation Xrotation Yrotation
          End Site
          {
            OFFSET 0 20 0
          }
        }
      }
      JOINT right_manubrium
      {
        OFFSET -5.722621 16.35077 3.967754
        CHANNELS 3 Zrotation Xrotation Yrotation
        JOINT right_clavicle
        {
          OFFSET -13.16364 1.694482 -4.693211
          CHANNELS 3 Zrotation Xrotation Yrotation
          JOINT right_humerus
          {
            OFFSET -28.5034 -0.3100689 -2.792744
            CHANNELS 3 Zrotation Xrotation Yrotation
            JOINT right_radius
            {
              OFFSET -25.15693 0.02248979 -1.271978
              CHANNELS 3 Zrotation Xrotation Yrotation
              End Site
              {
                OFFSET -15 0 0
              }
            }
          }
        }
      }
      JOINT left_manubrium
      {
        OFFSET 5.722621 16.35077 3.967754
        CHANNELS 3 Zrotation Xrotation Yrotation
        JOINT left_clavicle
        {
          OFFSET 13.16364 1.694482 -4.693211
          CHANNELS 3 Zrotation Xrotation Yrotation
          JOINT left_humerus
          {
            OFFSET 29.39168 -1.063119 -2.237045
            CHANNELS 3 Zrotation Xrotation Yrotation
            JOINT left_radius
            {
              OFFSET 24.59957 -0.9528479 0.9047498
              CHANNELS 3 Zrotation Xrotation Yrotation
              End Site
              {
                OFFSET 15 -0 -0
              }
            }
          }
        }
      }
    }
  }
}
MOTION
Frames: 19
Frame Time: 0.0416666666667
0 103.5113 0 -0.002861326 -1.762602 0.01773136 -1.084104 -6.743616 6.695806 -0 32.36633 -0 -6.721568 -12.40212 -4.779267 -3.864785 9.70712 -23.76177 -0 6.855552 -0 19.17044 -13.61478 26.7133 -3.899006 -5.340252 3.092821 3.432126 11.51654 -8.809436 1.655194 22.66296 7.388776 -0.3783784 -23.81856 11.53842 10.33515 -19.61097 14.65752 81.04284 33.08897 -17.49713 -0 0 15.89024 -16.10803 10.33936 12.89614 9.644198 -23.74811 4.343408 -99.25186 29.9563 22.51878 0 0 -9.809892 3.422934 30.99389 5.432802
0.4872485 103.5707 0.8919096 -0.01002377 -1.824253 -0.1987714 -0.5595509 -10.82757 7.505324 -0 39.4365 -0 -6.736744 -10.45503 -5.514992 -4.191598 10.65845 -23.22704 -0 6.043442 -0 18.92696 -13.7081 26.66692 -3.95758 -4.559509 2.8454 3.316808 11.65374 -8.972798 1.70103 22.35271 7.60766 -0.1861739 -24.15428 11.74672 10.14229 -19.84514 14.4048 80.58795 32.82735 -16.93465 -0 0 16.25489 -16.2696 10.21159 13.08811 9.305184 -23.41256 3.982889 -98.9014 30.10757 22.62297 0 0 -10.14826 3.798462 30.48162 5.953164
0.9448999 103.5129 1.977028 -0.02377926 -1.962045 -0.6792585 0.02604138 -14.79605 7.774013 -0 45.36825 -0 -6.963512 -8.873437 -6.213059 -4.450239 11.90846 -22.63217 -0 5.246813 -0 18.55357 -13.91826 26.61332 -4.110097 -3.590911 2.60127 3.224757 11.80295 -9.135708 1.750724 21.99018 7.854891 0.02634668 -24.53216 11.97479 9.938599 -20.0271 14.22752 80.21567 32.5793 -16.50543 -0 0 16.50977 -16.41274 10.10716 13.25922 8.945413 -23.00734 3.432511 -98.48832 30.2345 22.70041 0 0 -10.53192 4.06858 29.89397 6.469995
1.240366 103.6164 3.075256 -0.03988466 -2.096951 -1.152047 0.6616312 -18.95612 7.371031 -0 48.5117 -0 -7.47069 -8.187812 -6.588333 -4.626084 13.07131 -22.01977 -0 4.597034 -0 18.00985 -14.20901 26.50087 -4.341756 -2.287818 2.543448 3.205865 11.8075 -9.148653 1.800136 21.55533 8.062486 0.2315263 -24.92001 12.13547 9.764904 -20.11416 14.14405 80.04448 32.36737 -16.28692 -0 0 16.55295 -16.50372 10.03849 13.37714 8.656194 -22.89066 2.841365 -97.9245 30.39083 22.48179 0 0 -11.08339 4.239798 29.25878 6.978888
1.428746 103.7325 4.409219 -0.06163165 -2.26947 -1.758639 1.441721 -22.41237 6.442318 -0 48.24187 -0 -8.000945 -7.685617 -6.141074 -4.78777 14.12642 -21.34997 -0 4.157527 -0 17.36443 -14.67285 26.32387 -4.534702 -0.9146109 2.773332 3.271482 11.74786 -8.896279 1.914488 21.11473 8.221226 0.452624 -25.20926 12.29806 9.467107 -19.88807 14.10743 80.19742 32.21396 -16.47809 -0 0 16.25479 -16.49307 10.02932 13.39659 8.480313 -22.93459 2.309129 -97.42292 30.5347 22.07711 0 0 -11.84909 4.300658 28.58579 7.45633
1.618809 103.5481 5.988075 -0.08207583 -2.40848 -2.254772 2.04246 -24.91395 5.279774 -0 43.25674 -0 -8.144205 -7.326756 -5.115415 -5.123137 15.4584 -20.51782 -0 4.192437 -0 16.77774 -15.50001 26.08001 -4.715014 0.482627 3.140318 3.3029 11.63205 -8.450568 2.085873 20.64573 8.281221 0.6776908 -25.39184 12.37811 8.943514 -19.4041 14.16877 80.67111 32.11539 -16.93043 -0 0 15.75886 -16.38621 10.07825 13.36432 8.47837 -23.01761 1.797943 -97.03796 30.65691 21.51908 0 0 -12.90519 4.283106 27.88922 7.850849
1.759231 103.1217 8.042337 -0.09939116 -2.509315 -2.620156 2.416928 -26.88932 4.423192 -0 35.85675 -0 -8.056651 -6.588415 -4.07708 -5.425884 16.76472 -19.67179 -0 4.506816 -0 16.20457 -16.60671 25.64977 -4.67626 1.57767 3.427855 3.293406 11.48712 -8.031588 2.169071 20.2179 8.393345 0.854076 -25.50684 12.45937 8.292616 -18.72862 14.24758 81.44047 32.0579 -17.63042 -0 0 15.04793 -16.19378 10.18687 13.26645 8.44929 -23.04144 1.192518 -96.72681 30.75284 20.98099 0 0 -14.08251 4.169719 27.16575 8.172245
1.931715 102.5121 10.35767 -0.1057804 -2.513157 -2.647395 2.590174 -28.3736 3.862495 -0 27.88891 -0 -7.961996 -5.834119 -3.161768 -5.694701 17.95611 -18.81665 -0 5.151011 -0 15.58661 -17.88275 24.97632 -4.568925 2.525747 3.42467 3.461575 11.32658 -7.985662 2.174707 20.02505 8.519867 0.9954837 -25.43584 12.50744 7.66921 -18.22027 14.14497 82.16732 32.06716 -18.38753 -0 0 14.158 -15.95734 10.33882 13.11217 8.383234 -22.99928 0.4604061 -96.44053 30.84245 20.50455 0 0 -15.28278 3.943175 26.41126 8.445869
1.950753 101.7294 13.23145 -0.09410058 -2.362557 -2.131747 2.793774 -29.77794 3.747222 -0 21.29111 -0 -8.024487 -5.135765 -2.404 -5.757258 19.17292 -17.99482 -0 6.206278 -0 14.7952 -19.14727 23.96697 -4.358302 3.024448 3.222574 3.599036 11.09719 -8.209702 2.033291 19.96505 8.655453 1.092609 -25.26172 12.40519 7.160631 -17.71115 13.78873 82.9982 32.09541 -19.34702 -0 0 13.1146 -15.68902 10.53352 12.92017 8.097521 -22.91758 -0.1018271 -96.18658 30.83048 20.2408 0 0 -16.1605 3.690703 25.62456 8.753797
1.895221 100.957 16.37029 -0.07956476 -2.177053 -1.492475 3.106708 -30.2134 3.604139 -0 16.79505 -0 -8.32506 -4.63183 -1.767133 -5.757827 20.06649 -17.18807 -0 7.890999 -0 13.6506 -20.09184 22.58562 -4.098315 3.479075 2.927896 3.761615 10.76626 -8.578949 1.916611 19.95195 8.770137 1.244907 -25.1181 12.25528 6.768509 -17.2521 13.4697 83.80947 32.16496 -20.30513 -0 0 12.01046 -15.41111 10.76928 12.72174 7.641588 -22.79543 -0.6947159 -95.85584 30.76266 20.1349 0 0 -16.58472 3.351467 24.7757 9.150965
1.775931 100.419 20.22447 -0.05443581 -1.862284 -0.4000016 3.231976 -29.94009 3.433048 -0 15.57206 -0 -8.936178 -4.21214 -1.73301 -5.435793 21.11193 -16.18673 -0 10.24811 -0 11.93523 -20.29136 20.63214 -3.714289 3.598651 2.400431 3.969864 10.35978 -9.164862 1.730653 20.10365 8.914931 1.431991 -25.0577 12.0403 6.541015 -16.74883 13.03441 84.68706 32.26179 -21.38912 -0 0 10.77258 -15.10564 11.06312 12.49411 6.901372 -22.53364 -1.321601 -95.58647 30.62294 20.3357 0 0 -16.5212 2.907693 23.87515 9.631105
1.556273 100.1563 24.62541 -0.03129307 -1.508598 0.8291209 3.199919 -28.40419 3.198287 -0 16.93187 -0 -9.710201 -3.967887 -1.975333 -4.974582 21.45517 -15.22064 -0 13.90551 -0 9.646117 -19.25422 18.29094 -3.282915 3.274416 1.816409 4.130378 10.03302 -9.807301 1.569056 20.25088 8.967875 1.601376 -24.94108 11.7314 6.441533 -16.21067 12.63477 85.64521 32.40032 -22.47151 -0 0 9.506319 -14.77293 11.4253 12.26557 6.070786 -22.10065 -1.866995 -95.36354 30.37836 20.77343 0 0 -16.16276 2.440427 22.9261 10.11792
1.346307 100.3338 29.76567 -0.01762248 -1.228787 1.802297 3.325404 -26.76431 3.076688 -0 18.81738 -0 -10.42698 -4.339835 -2.328396 -4.635737 21.0603 -14.15511 -0 19.32647 -0 6.946525 -16.56322 15.75734 -2.60615 2.434254 1.422335 4.260091 9.776028 -10.21887 1.264212 20.43398 9.01117 1.659185 -24.71602 11.3064 6.292783 -15.58448 12.28755 86.59113 32.59444 -23.5035 -0 0 8.236325 -14.43882 11.85309 12.04213 5.397826 -21.45422 -2.119525 -95.342 30.00984 21.39738 0 0 -15.85818 2.068384 22.00575 10.56
1.161536 100.7876 35.19609 -0.01421868 -1.113452 2.204277 3.409579 -24.4362 2.967125 -0 20.22894 -0 -10.99654 -5.327651 -2.526697 -4.672715 19.7253 -12.98699 -0 26.847 -0 4.222357 -12.21821 13.32625 -1.891069 1.478803 1.409559 4.261484 9.645038 -10.23667 0.9330145 20.63013 9.016085 1.670747 -24.38768 10.82651 6.089237 -15.00122 12.18801 87.48085 32.88277 -24.17566 -0 0 7.099292 -14.14048 12.34263 11.85865 4.910368 -20.69194 -2.191323 -95.3137 29.50376 22.01787 0 0 -15.67007 1.78843 21.05444 10.87015
0.9392364 101.4285 40.72372 -0.02094439 -1.211365 1.866969 3.642677 -21.08338 2.772776 -0 20.51547 -0 -11.41712 -7.048673 -2.473745 -4.913997 16.51783 -11.62988 -0 36.13547 -0 2.172614 -7.252582 11.54963 -1.275418 0.4845002 1.922583 4.173819 9.632877 -9.890192 0.615997 20.95753 8.976757 1.683167 -23.96767 10.31385 5.925117 -14.70071 12.27511 87.98229 33.27348 -24.26847 -0 0 6.368907 -14.00948 12.85041 11.79338 4.535935 -20.08486 -2.009311 -95.01425 28.90379 22.42625 0 0 -15.68359 1.658626 20.09988 10.99009
0.6563458 102.127 45.96173 -0.03185599 -1.371835 1.313892 3.844375 -17.10259 2.506875 -0 19.62217 -0 -11.54705 -8.907625 -2.221533 -5.235775 11.59644 -10.02799 -0 45.83692 -0 1.203907 -3.249589 10.98612 -0.9881116 -0.3084635 2.832885 4.170303 9.645725 -9.421219 0.4066568 21.3349 8.851955 1.748463 -23.58449 9.783603 5.970783 -14.71103 12.51609 87.90806 33.75596 -23.77011 -0 0 6.034486 -14.12359 13.34567 11.84687 4.226569 -19.9589 -1.759156 -94.35886 28.24908 22.50032 0 0 -15.8794 1.706511 19.14062 10.9545
0.5343419 103.0136 51.00234 -0.04310598 -1.529128 0.7734346 3.886338 -12.6975 2.265509 -0 17.72493 -0 -11.32367 -10.44493 -1.827059 -4.168466 4.834961 -8.604701 -0 53.83313 -0 1.199554 -2.03819 11.5634 -0.6630945 -0.8904241 3.876708 4.208898 9.695957 -8.933175 0.1350221 21.72168 8.687632 1.771968 -23.27952 9.145705 6.047196 -15.09015 12.94446 87.06606 34.34682 -22.5757 -0 0 6.086711 -14.56975 13.7951 12.04458 4.062635 -20.04803 -1.448364 -93.5287 27.52679 22.24602 0 0 -16.29958 1.962862 18.21039 10.82866
0.3320715 103.941 55.76367 -0.04942163 -1.617999 0.471359 3.895592 -8.190558 2.023488 -0 15.18384 -0 -10.78756 -11.60938 -1.382031 -3.062326 -3.096655 -7.107624 -0 58.52606 -0 2.016415 -2.393884 12.73431 -0.5077289 -1.42488 5.055578 4.212445 9.672905 -8.222063 0.05880634 22.09668 8.47294 1.866304 -23.04214 8.653508 6.124175 -15.39783 13.22043 86.01991 34.85796 -21.06879 -0 0 6.450902 -15.29756 14.193 12.36575 3.864615 -20.32466 -1.018754 -92.58925 26.75258 21.86609 0 0 -16.76929 2.29933 17.28559 10.6455
0.2014967 104.7798 60.12115 -0.05406071 -1.686162 0.238265 3.819999 -3.899005 1.790727 -0 12.47844 -0 -10.04148 -12.54901 -0.9188793 -1.758035 -9.59592 -6.570044 -0 59.21318 -0 3.06097 -3.595111 13.65357 -0.4548035 -1.477483 5.933604 4.004003 9.56593 -7.592583 0.01554665 22.39435 8.29346 1.95842 -22.76169 8.251323 5.97506 -16.25451 13.55291 84.25916 35.32945 -18.58432 -0 0 7.62482 -16.52018 14.45668 13.03834 3.864249 -20.53259 -0.7604384 -91.61507 25.97805 21.45519 0 0 -17.40656 2.649207 16.40736 10.40233
